<svg width="128" height="128" version="1.1" xmlns="http://www.w3.org/2000/svg" desc="" ><path fill="rgb(28,28,28)" stroke="rgb(28,28,28)" stroke-width="0.5" opacity="1" d="M 69.5 34 Q 72.8 32.9 72 35.5 L 73 36.5 L 73 47 L 85 46 Q 87.3 52 80.5 50 L 78.5 50 Q 70.7 47.3 73 54.5 L 74 61 L 69 60.5 L 70 59.5 L 70 50.5 L 69 49.5 Q 70.4 40.6 68 35.5 L 69.5 34 Z " /><path fill="rgb(28,28,28)" stroke="rgb(28,28,28)" stroke-width="0.5" opacity="1" d="M 54.5 41 Q 59 40 60 42.5 Q 59.5 56.5 52.5 64 L 49 62.5 Q 55 55.8 56 45 L 51.5 45 L 41 51 Q 41.7 45.6 46.5 43 L 54.5 41 Z " /><path fill="rgb(28,28,28)" stroke="rgb(28,28,28)" stroke-width="0.5" opacity="1" d="M 80.5 66 L 83 69.5 L 84 81.5 L 86 85 L 75 88 L 73.5 91 L 71 89.5 Q 71.5 85.5 68.5 85 L 61.5 90 L 55.5 90 Q 50.5 86.8 50 80 Q 52.7 78.1 59.5 79 L 62 76.5 L 61 72 L 53 73 L 52 70.5 L 61.5 67 L 65 69.5 Q 66.1 77.7 64 81 L 56 84.5 L 57.5 87 Q 60.4 84.4 66.5 85 L 69 82.5 Q 67.6 72.9 70 69 L 80.5 66 Z M 78 70 L 75 71 L 72 75 Q 71 82 75 84 L 81 82 L 79 74 Q 80 69 78 70 Z " /></svg>